<?xml version="1.0" standalone="no"?>
<!DOCTYPE svg PUBLIC "-//W3C//DTD SVG 20010904//EN"
 "http://www.w3.org/TR/2001/REC-SVG-20010904/DTD/svg10.dtd">
<svg version="1.0" xmlns="http://www.w3.org/2000/svg"
 width="113.000000pt" height="93.000000pt" viewBox="0 0 113.000000 93.000000"
 preserveAspectRatio="xMidYMid meet">
<metadata>
Created by potrace 1.15, written by Peter Selinger 2001-2017
</metadata>
<g transform="translate(0.000000,93.000000) scale(0.100000,-0.100000)"
fill="#ffffff" stroke="none">
<path d="M288 590 c-23 -23 -35 -29 -54 -24 -17 4 -31 0 -44 -11 -17 -16 -20
-31 -20 -120 0 -89 3 -104 20 -120 13 -11 30 -16 50 -13 18 3 30 0 30 -7 0
-16 43 -55 61 -55 33 0 59 44 59 98 l0 52 145 0 145 0 0 -55 c0 -42 5 -60 20
-75 27 -27 44 -25 81 8 17 15 40 26 51 24 10 -2 30 4 44 12 23 16 24 21 24
126 0 104 -1 110 -23 125 -16 10 -35 13 -55 9 -25 -5 -32 -3 -32 9 0 17 -36
47 -57 47 -7 0 -22 -9 -33 -20 -16 -16 -20 -33 -20 -85 l0 -65 -145 0 -145 0
0 64 c0 58 -3 67 -26 85 -35 27 -40 27 -76 -9z m70 2 c9 -7 12 -46 10 -162 -3
-133 -5 -154 -20 -164 -13 -8 -23 -8 -36 0 -15 10 -17 31 -20 159 -3 151 2
175 37 175 9 0 22 -4 29 -8z m410 -4 c8 -8 12 -58 12 -160 0 -148 0 -148 -25
-160 -19 -8 -28 -8 -40 2 -12 10 -15 40 -15 165 0 113 3 155 13 158 22 9 43 7
55 -5z m-504 -54 c3 -9 6 -58 6 -110 0 -91 -1 -95 -25 -106 -45 -20 -55 1 -55
117 0 56 3 105 7 108 13 13 61 7 67 -9z m599 2 c14 -11 17 -30 17 -110 0 -93
-1 -97 -25 -108 -45 -20 -55 1 -55 117 0 102 3 112 35 114 6 0 18 -6 28 -13z"/>
</g>
</svg>
